<svg width="100" height="100" viewBox="0 0 100 100" fill="none" xmlns="http://www.w3.org/2000/svg">
<rect width="100" height="100" rx="50" fill="white"/>
<path d="M52.6266 29.0977C50.2803 34.4356 48.0413 48.1412 57.8555 60.2598C61.4085 55.5951 65.3368 42.8321 52.6266 29.0977Z" fill="url(#paint0_linear_53_182)"/>
<path d="M60.5186 72.7265C58.954 66.5269 61.6834 51.2696 84.4229 34.373C82.7424 47.6129 75.4697 72.7265 60.5186 72.7265Z" fill="url(#paint1_linear_53_182)"/>
<path d="M55.2222 74.3698C30.1668 77.7527 15.4978 44.2134 16.3401 25.917C18.7445 26.4028 31.633 32.4151 44.4704 47.7016C56.6762 65.2935 60.3165 73.682 55.2222 74.3698Z" fill="url(#paint2_linear_53_182)"/>
<defs>
<linearGradient id="paint0_linear_53_182" x1="55.9793" y1="29.0977" x2="55.9793" y2="60.2598" gradientUnits="userSpaceOnUse">
<stop stop-color="#333D29"/>
<stop offset="1" stop-color="#656D4A"/>
</linearGradient>
<linearGradient id="paint1_linear_53_182" x1="72.2898" y1="34.373" x2="72.2898" y2="72.7265" gradientUnits="userSpaceOnUse">
<stop stop-color="#333D29"/>
<stop offset="1" stop-color="#656D4A"/>
</linearGradient>
<linearGradient id="paint2_linear_53_182" x1="34.38" y1="23.4813" x2="41.5008" y2="76.2224" gradientUnits="userSpaceOnUse">
<stop stop-color="#333D29"/>
<stop offset="1" stop-color="#656D4A"/>
</linearGradient>
</defs>
</svg>
